<svg width="520" height="360" viewBox="0 0 520 360" fill="none" xmlns="http://www.w3.org/2000/svg">
  <rect width="520" height="360" rx="28" fill="url(#bg)"/>
  <rect x="20" y="20" width="480" height="320" rx="22" stroke="rgba(255,255,255,0.18)" stroke-width="2"/>
  <circle cx="92" cy="78" r="54" fill="url(#spot)"/>
  <circle cx="430" cy="84" r="72" fill="url(#spot2)"/>
  <path d="M108 274C152 242 208 234 260 234C311 234 367 242 412 274" stroke="white" stroke-opacity="0.18" stroke-width="16" stroke-linecap="round"/>
  <path d="M120 286C163 261 210 253 260 253C309 253 357 261 400 286" stroke="white" stroke-opacity="0.32" stroke-width="8" stroke-linecap="round"/>
  <circle cx="184" cy="176" r="20" fill="#F7F8FC" fill-opacity="0.85"/>
  <rect x="172" y="198" width="24" height="56" rx="12" fill="#F7F8FC" fill-opacity="0.85"/>
  <rect x="132" y="212" width="48" height="14" rx="7" transform="rotate(-28 132 212)" fill="#F7F8FC" fill-opacity="0.85"/>
  <rect x="192" y="206" width="52" height="14" rx="7" transform="rotate(28 192 206)" fill="#F7F8FC" fill-opacity="0.85"/>
  <rect x="172" y="252" width="54" height="14" rx="7" transform="rotate(28 172 252)" fill="#F7F8FC" fill-opacity="0.85"/>
  <rect x="146" y="250" width="54" height="14" rx="7" transform="rotate(-36 146 250)" fill="#F7F8FC" fill-opacity="0.85"/>
  <circle cx="260" cy="166" r="20" fill="#F7F8FC" fill-opacity="0.92"/>
  <rect x="248" y="188" width="24" height="62" rx="12" fill="#F7F8FC" fill-opacity="0.92"/>
  <rect x="208" y="204" width="52" height="14" rx="7" transform="rotate(-12 208 204)" fill="#F7F8FC" fill-opacity="0.92"/>
  <rect x="260" y="192" width="54" height="14" rx="7" transform="rotate(22 260 192)" fill="#F7F8FC" fill-opacity="0.92"/>
  <rect x="246" y="250" width="54" height="14" rx="7" transform="rotate(34 246 250)" fill="#F7F8FC" fill-opacity="0.92"/>
  <rect x="216" y="250" width="54" height="14" rx="7" transform="rotate(-26 216 250)" fill="#F7F8FC" fill-opacity="0.92"/>
  <circle cx="336" cy="182" r="20" fill="#F7F8FC" fill-opacity="0.76"/>
  <rect x="324" y="204" width="24" height="54" rx="12" fill="#F7F8FC" fill-opacity="0.76"/>
  <rect x="290" y="218" width="46" height="14" rx="7" transform="rotate(-40 290 218)" fill="#F7F8FC" fill-opacity="0.76"/>
  <rect x="336" y="212" width="56" height="14" rx="7" transform="rotate(18 336 212)" fill="#F7F8FC" fill-opacity="0.76"/>
  <rect x="324" y="254" width="52" height="14" rx="7" transform="rotate(20 324 254)" fill="#F7F8FC" fill-opacity="0.76"/>
  <rect x="300" y="254" width="48" height="14" rx="7" transform="rotate(-18 300 254)" fill="#F7F8FC" fill-opacity="0.76"/>
  <defs>
    <linearGradient id="bg" x1="48" y1="18" x2="454" y2="330" gradientUnits="userSpaceOnUse">
      <stop stop-color="#22183B"/>
      <stop offset="0.52" stop-color="#151E3D"/>
      <stop offset="1" stop-color="#10232A"/>
    </linearGradient>
    <radialGradient id="spot" cx="0" cy="0" r="1" gradientUnits="userSpaceOnUse" gradientTransform="translate(92 78) rotate(90) scale(54)">
      <stop stop-color="#FF7AB6" stop-opacity="0.7"/>
      <stop offset="1" stop-color="#FF7AB6" stop-opacity="0"/>
    </radialGradient>
    <radialGradient id="spot2" cx="0" cy="0" r="1" gradientUnits="userSpaceOnUse" gradientTransform="translate(430 84) rotate(90) scale(72)">
      <stop stop-color="#8CFFB7" stop-opacity="0.75"/>
      <stop offset="1" stop-color="#8CFFB7" stop-opacity="0"/>
    </radialGradient>
  </defs>
</svg>
